<?xml version="1.0" standalone="no"?>
<!DOCTYPE svg PUBLIC "-//W3C//DTD SVG 20010904//EN"
 "http://www.w3.org/TR/2001/REC-SVG-20010904/DTD/svg10.dtd">
<svg version="1.0" xmlns="http://www.w3.org/2000/svg"
 width="500.000000pt" height="500.000000pt" viewBox="0 0 500.000000 500.000000"
 preserveAspectRatio="xMidYMid meet">
<metadata>
Created by potrace 1.14, written by Peter Selinger 2001-2017
</metadata>
<g transform="translate(0.000000,500.000000) scale(0.100000,-0.100000)"
fill="#000000" stroke="none">
<path d="M2683 4329 c-53 -16 -63 -48 -63 -208 l0 -140 -52 -5 c-125 -14 -371
-36 -372 -34 -65 107 -200 172 -274 134 -29 -15 -52 -61 -52 -104 0 -30 -34
-74 -67 -89 -21 -8 -90 -18 -163 -22 -140 -9 -174 -22 -185 -72 -10 -46 3 -86
40 -118 43 -37 91 -51 179 -51 50 0 67 -3 64 -12 -16 -42 -278 -843 -292 -889
-14 -48 -22 -60 -50 -73 -19 -9 -58 -16 -88 -16 -63 0 -121 -15 -138 -35 -35
-42 15 -122 94 -148 23 -8 41 -18 41 -23 -1 -24 -95 -298 -156 -456 -38 -97
-69 -186 -69 -197 0 -11 -4 -22 -8 -25 -5 -3 -19 -40 -32 -83 -13 -43 -34 -96
-48 -118 -40 -63 -53 -118 -42 -177 29 -151 203 -289 366 -290 144 -1 317 88
543 278 166 139 267 244 296 307 22 48 25 60 14 73 -8 10 -21 13 -36 9 -12 -3
-161 -83 -330 -177 -280 -157 -447 -237 -496 -238 -13 0 -18 6 -16 23 1 12 -1
29 -5 38 -4 8 0 31 8 51 35 83 229 638 281 803 83 266 81 262 117 274 17 6 53
11 79 11 27 0 81 11 122 24 40 13 133 33 206 45 90 14 147 29 179 46 27 15 63
25 87 25 44 0 103 26 119 52 14 23 -9 51 -32 38 -10 -5 -71 -13 -137 -20 -66
-6 -223 -21 -350 -34 -213 -22 -262 -24 -238 -7 5 3 42 98 83 211 40 113 109
300 152 415 44 116 89 237 99 271 10 34 27 70 37 82 20 23 143 56 252 67 36 3
92 17 125 30 33 12 79 25 103 28 l42 5 0 -1152 c0 -816 3 -1162 11 -1185 6
-17 19 -36 29 -41 11 -6 158 -10 363 -10 l345 0 26 31 26 31 0 478 0 478 248
4 c227 5 255 8 347 32 236 63 434 195 555 371 50 73 108 204 132 301 32 127
32 379 0 507 -74 298 -273 512 -570 613 -189 65 -207 66 -842 70 -356 2 -587
-1 -607 -7z m1207 -174 c219 -33 348 -92 471 -214 81 -81 144 -189 175 -301
25 -89 30 -319 10 -421 -62 -307 -253 -500 -581 -586 -45 -12 -136 -17 -362
-22 -297 -6 -303 -6 -325 -29 l-23 -23 -3 -489 -3 -490 -229 0 -230 0 0 1134
0 1134 38 6 c55 10 162 46 162 56 0 4 27 11 61 14 82 10 182 41 203 65 27 29
17 57 -19 54 -17 -2 -88 -7 -160 -12 -133 -10 -209 -18 -257 -27 l-28 -6 0 86
0 86 503 0 c387 0 524 -3 597 -15z m-2265 -1141 c-32 -107 -153 -400 -161
-392 -2 2 39 121 91 263 52 143 95 262 96 265 0 3 3 0 5 -6 3 -6 -12 -64 -31
-130z"/>
<path d="M3318 3834 c-15 -3 -37 -17 -48 -31 -19 -25 -20 -39 -20 -410 0 -433
1 -437 66 -449 20 -4 108 -4 197 -2 142 4 172 8 241 32 105 36 155 67 215 132
74 80 95 143 95 279 0 91 -4 120 -23 168 -49 124 -185 228 -346 262 -70 15
-326 28 -377 19z m381 -189 c138 -42 201 -124 201 -259 0 -93 -16 -135 -69
-186 -68 -66 -120 -82 -278 -88 l-133 -4 0 282 0 283 113 -6 c61 -3 136 -13
166 -22z"/>
</g>
</svg>
